<svg width="500" height="200" xmlns="http://www.w3.org/2000/svg">
  <rect x="10" y="75" width="120" height="50" rx="8" fill="#d4edda" stroke="#28a745" stroke-width="1.5"/>
  <text x="70" y="100" text-anchor="middle" font-family="sans-serif" font-size="13" font-weight="bold">Better</text>
  <text x="70" y="116" text-anchor="middle" font-family="sans-serif" font-size="13" font-weight="bold">Data</text>
  <rect x="190" y="75" width="120" height="50" rx="8" fill="#cce5ff" stroke="#004085" stroke-width="1.5"/>
  <text x="250" y="100" text-anchor="middle" font-family="sans-serif" font-size="13" font-weight="bold">Better</text>
  <text x="250" y="116" text-anchor="middle" font-family="sans-serif" font-size="13" font-weight="bold">Models</text>
  <rect x="370" y="75" width="120" height="50" rx="8" fill="#fff3cd" stroke="#856404" stroke-width="1.5"/>
  <text x="430" y="100" text-anchor="middle" font-family="sans-serif" font-size="13" font-weight="bold">Better</text>
  <text x="430" y="116" text-anchor="middle" font-family="sans-serif" font-size="13" font-weight="bold">Decisions</text>
  <line x1="130" y1="100" x2="185" y2="100" stroke="#333" stroke-width="1.5" marker-end="url(#a)"/>
  <line x1="310" y1="100" x2="365" y2="100" stroke="#333" stroke-width="1.5" marker-end="url(#a)"/>
  <path d="M 430 125 Q 430 175 250 175 Q 70 175 70 125" fill="none" stroke="#888" stroke-width="1.5" stroke-dasharray="6,3" marker-end="url(#b)"/>
  <text x="250" y="170" text-anchor="middle" font-family="sans-serif" font-size="11" fill="#555">Feedback and Iteration</text>
  <defs>
    <marker id="a" markerWidth="8" markerHeight="8" refX="6" refY="3" orient="auto">
      <path d="M0,0 L0,6 L8,3 z" fill="#333"/>
    </marker>
    <marker id="b" markerWidth="8" markerHeight="8" refX="2" refY="3" orient="auto">
      <path d="M8,0 L8,6 L0,3 z" fill="#333"/>
    </marker>
  </defs>
</svg>
